<?xml version="1.0" standalone="no"?><!DOCTYPE svg PUBLIC "-//W3C//DTD SVG 1.1//EN" "http://www.w3.org/Graphics/SVG/1.1/DTD/svg11.dtd"><svg t="1556949451017" class="icon" style="" viewBox="0 0 1024 1024" version="1.1" xmlns="http://www.w3.org/2000/svg" p-id="1273" xmlns:xlink="http://www.w3.org/1999/xlink" width="200" height="200"><defs><style type="text/css"></style></defs><path d="M508.19 927a12 12 0 0 1-3.93-0.66L229.46 831a64.27 64.27 0 0 1-62.06-64.16V205.25a64.26 64.26 0 0 1 64.19-64.19 11.93 11.93 0 0 1 3.93 0.67l276.61 96a12 12 0 1 1-7.87 22.67l-274.57-95.29a40.24 40.24 0 0 0-38.29 40.14v561.56A40.24 40.24 0 0 0 231.59 807a11.93 11.93 0 0 1 3.93 0.67l276.61 96a12 12 0 0 1-3.94 23.33z" p-id="1274"></path><path d="M516.54 927a12 12 0 0 1-12-12V249.09a12 12 0 0 1 8.07-11.33l276.6-96a12 12 0 0 1 3.94-0.67 64.27 64.27 0 0 1 64.19 64.19v561.53A64.28 64.28 0 0 1 795.27 831l-274.79 95.4a12.11 12.11 0 0 1-3.94 0.6z m12-669.4v640.56l260.67-90.49a12 12 0 0 1 3.94-0.67 40.24 40.24 0 0 0 40.19-40.19V205.25A40.24 40.24 0 0 0 795 165.11z" p-id="1275"></path><path d="M239 359l231.39 80.54" fill="#FFFFFF" p-id="1276"></path><path d="M470.39 451.54a11.88 11.88 0 0 1-3.95-0.67l-231.38-80.54a12 12 0 1 1 7.88-22.66l231.39 80.54a12 12 0 0 1-3.94 23.33z" p-id="1277"></path><path d="M239 484l231.39 80.54" fill="#FFFFFF" p-id="1278"></path><path d="M470.39 576.54a11.88 11.88 0 0 1-3.95-0.67l-231.38-80.54a12 12 0 1 1 7.88-22.66l231.39 80.54a12 12 0 0 1-3.94 23.33z" p-id="1279"></path><path d="M239 609l231.39 80.54" fill="#FFFFFF" p-id="1280"></path><path d="M470.39 701.54a11.88 11.88 0 0 1-3.95-0.67l-231.38-80.54a12 12 0 1 1 7.88-22.66l231.39 80.54a12 12 0 0 1-3.94 23.33z" p-id="1281"></path><path d="M783.98 587.94L563.41 694.6" fill="#FFFFFF" p-id="1282"></path><path d="M563.42 706.61a12 12 0 0 1-5.23-22.81l220.56-106.67a12 12 0 1 1 10.45 21.61L568.64 705.41a12.06 12.06 0 0 1-5.22 1.2z" p-id="1283"></path><path d="M783.98 462.94L563.41 569.6" fill="#FFFFFF" p-id="1284"></path><path d="M563.42 581.61a12 12 0 0 1-5.23-22.81l220.56-106.67a12 12 0 1 1 10.45 21.61L568.64 580.41a12.06 12.06 0 0 1-5.22 1.2z" p-id="1285"></path><path d="M783.98 337.94L563.41 444.6" fill="#FFFFFF" p-id="1286"></path><path d="M563.42 456.61a12 12 0 0 1-5.23-22.81l220.56-106.67a12 12 0 1 1 10.45 21.61L568.64 455.41a12.06 12.06 0 0 1-5.22 1.2z" p-id="1287"></path></svg>